<?xml version="1.0" standalone="no"?><!DOCTYPE svg PUBLIC "-//W3C//DTD SVG 1.1//EN" "http://www.w3.org/Graphics/SVG/1.1/DTD/svg11.dtd"><svg width="100%" height="100%" viewBox="0 0 2000 490" version="1.1" xmlns="http://www.w3.org/2000/svg" xmlns:xlink="http://www.w3.org/1999/xlink" xml:space="preserve" style="fill-rule:evenodd;clip-rule:evenodd;stroke-linecap:round;stroke-linejoin:round;stroke-miterlimit:1.41421;"><g id="Icon"><path d="M218.263,383.065l-132.181,-48.698l0,-294.052l132.181,48.698c13.482,4.967 28.293,4.967 41.776,0l132.18,-48.698l0,294.052l-132.18,48.698c-13.483,4.967 -28.294,4.967 -41.776,0Z" style="fill:none;stroke-width:16.11px;stroke:#333;"/><path d="M239.151,290.227l0,-197.547" style="fill:none;stroke-width:16.11px;stroke:#333;"/><path d="M239.151,338.395l0,-11.915" style="fill:none;stroke-width:16.11px;stroke:#333;"/><path d="M392.738,79.643l27.678,-3.075l0,294.052l-174.593,19.399c-4.434,0.493 -8.91,0.493 -13.345,0l-174.592,-19.399l0,-294.052l27.678,3.075" style="fill:none;stroke-width:16.11px;stroke:#333;"/></g><g id="Text"><path d="M589.089,59.444l-42.918,0l0,318.073l42.918,0l0,-75.822l19.075,-34.335l30.043,110.157l41.965,0l-46.733,-157.844l42.918,-79.161l-43.395,0l-43.873,91.083l0,-172.151l0,0Z" style="fill:#ff4136;fill-rule:nonzero;"/><path d="M752.657,140.512l-42.919,0l0,237.005l42.919,0l0,-237.005l0,0ZM752.657,59.444l-42.919,0l0,42.918l42.919,0l0,-42.918l0,0Z" style="fill:#ff4136;fill-rule:nonzero;"/><path d="M789.376,140.512l0,237.005l42.918,0l0,-143.538c0,-20.982 2.385,-30.997 10.015,-40.057c6.199,-7.63 15.736,-11.922 26.704,-11.922c4.769,0 8.584,0.477 14.783,2.384l0,-47.21c-22.413,0.954 -36.719,11.445 -51.502,37.196l0,-33.858l-42.918,0Z" style="fill:#ff4136;fill-rule:nonzero;"/><path d="M951.99,59.444l-42.918,0l0,318.073l42.918,0l0,-22.889c15.737,19.074 28.136,26.228 44.349,26.228c13.83,0 24.798,-6.677 30.997,-19.075c6.199,-12.399 7.63,-23.367 7.63,-55.318l0,-94.897c0,-31.951 -1.431,-42.919 -7.63,-55.317c-6.199,-12.399 -17.167,-19.075 -30.997,-19.075c-16.213,0 -28.612,7.153 -44.349,26.228l0,-103.958l0,0ZM951.99,186.769c7.63,-7.154 14.306,-10.492 21.459,-10.492c7.154,0 12.876,3.338 15.26,8.584c2.862,5.246 3.338,9.537 3.338,26.228l0,95.851c0,16.691 -0.476,20.506 -3.338,26.228c-2.384,5.246 -8.106,8.584 -15.26,8.584c-7.153,0 -13.829,-3.338 -21.459,-10.491l0,-144.492Z" style="fill:#ff4136;fill-rule:nonzero;"/><path d="M1153.71,140.512l-25.274,152.599l-25.751,-152.599l-42.919,0l48.164,239.867c-3.338,14.306 -4.768,18.598 -7.63,23.366c-6.199,10.492 -14.783,15.26 -29.089,15.26c-1.43,0 -5.245,0 -8.583,-0.477l0,41.965c6.199,0.954 9.06,1.431 15.259,1.431c23.367,0 39.104,-5.246 49.118,-16.691c10.015,-10.968 11.922,-16.69 20.983,-61.516l48.164,-243.205l-42.442,0l0,0Z" style="fill:#ff4136;fill-rule:nonzero;"/><path d="M1225.71,377.517l70.577,0c30.997,0 44.349,-3.815 57.225,-15.736c15.736,-14.783 23.366,-37.673 23.366,-69.624c0,-41.964 -11.445,-65.331 -39.103,-79.16c23.843,-16.691 33.381,-37.673 33.381,-71.054c0,-54.841 -26.705,-82.499 -79.161,-82.499l-66.285,0l0,318.073ZM1273.4,191.06l0,-87.267l18.121,0c22.413,0 32.904,12.875 32.904,40.057c0,18.121 -4.291,30.997 -12.875,39.104c-6.676,6.199 -13.353,8.106 -28.136,8.106l-10.014,0l0,0ZM1273.4,333.168l0,-97.758l11.922,0c14.783,0 22.413,1.907 28.612,7.153c10.014,8.106 15.26,23.843 15.26,44.349c0,32.904 -11.445,46.256 -38.15,46.256l-17.644,0Z" style="fill:#333;fill-rule:nonzero;"/><path d="M1565.25,162.925c0,-47.21 -3.815,-64.378 -19.075,-82.976c-12.399,-15.737 -33.381,-25.274 -55.317,-25.274c-22.413,0 -42.919,9.537 -55.794,25.274c-15.26,18.598 -19.075,36.242 -19.075,82.976l0,111.111c0,46.734 3.815,64.378 19.075,82.976c12.875,15.737 33.381,25.274 55.794,25.274c21.936,0 42.441,-9.537 55.317,-25.274c15.26,-18.598 19.075,-35.765 19.075,-82.976l0,-111.111l0,0ZM1463.67,168.171c0,-25.752 0.954,-41.965 2.384,-48.165c3.339,-13.352 12.399,-20.982 24.798,-20.982c10.968,0 19.552,6.676 23.367,18.121c2.384,6.676 3.338,20.029 3.338,51.026l0,100.62c0,26.704 -0.954,41.964 -2.385,48.164c-3.338,13.352 -12.398,20.982 -24.32,20.982c-11.445,0 -20.029,-6.676 -23.844,-18.121c-2.384,-6.676 -3.338,-20.982 -3.338,-51.025l0,-100.62l0,0Z" style="fill:#333;fill-rule:nonzero;"/><path d="M1754.57,162.925c0,-47.21 -3.815,-64.378 -19.075,-82.976c-12.398,-15.737 -33.381,-25.274 -55.317,-25.274c-22.413,0 -42.918,9.537 -55.794,25.274c-15.26,18.598 -19.075,36.242 -19.075,82.976l0,111.111c0,46.734 3.815,64.378 19.075,82.976c12.876,15.737 33.381,25.274 55.794,25.274c21.936,0 42.442,-9.537 55.317,-25.274c15.26,-18.598 19.075,-35.765 19.075,-82.976l0,-111.111l0,0ZM1652.99,168.171c0,-25.752 0.954,-41.965 2.385,-48.165c3.338,-13.352 12.398,-20.982 24.797,-20.982c10.968,0 19.552,6.676 23.367,18.121c2.384,6.676 3.338,20.029 3.338,51.026l0,100.62c0,26.704 -0.954,41.964 -2.384,48.164c-3.339,13.352 -12.399,20.982 -24.321,20.982c-11.445,0 -20.029,-6.676 -23.844,-18.121c-2.384,-6.676 -3.338,-20.982 -3.338,-51.025l0,-100.62l0,0Z" style="fill:#333;fill-rule:nonzero;"/><path d="M1796.05,59.444l0,318.073l47.687,0l0,-103.958l21.936,-43.872l40.534,147.83l51.026,0l-61.994,-207.439l54.841,-110.634l-50.072,0l-56.271,127.325l0,-127.325l-47.687,0l0,0Z" style="fill:#333;fill-rule:nonzero;"/></g></svg>